<?xml version="1.0" encoding="UTF-8"?>
<svg id="Layer_1" xmlns="http://www.w3.org/2000/svg" version="1.1" xmlns:xlink="http://www.w3.org/1999/xlink" viewBox="0 0 595.28 841.89">
  <!-- Generator: Adobe Illustrator 29.8.0, SVG Export Plug-In . SVG Version: 2.1.1 Build 160)  -->
  <defs>
    <style>
      .st0 {
        fill: #474647;
        font-family: PoorRichard-Regular, 'Poor Richard';
        font-size: 32.92px;
        letter-spacing: .23em;
      }

      .st1 {
        fill: url(#radial-gradient);
      }

      .st2 {
        fill: url(#radial-gradient1);
      }

      .st3 {
        fill: url(#radial-gradient2);
      }

      .st4 {
        fill: #d96427;
        font-family: Perpetua, Perpetua;
        font-size: 8.51px;
        letter-spacing: .11em;
      }
    </style>
    <radialGradient id="radial-gradient" cx="204.16" cy="415.48" fx="204.16" fy="415.48" r="19.28" gradientTransform="translate(0 48.49) scale(1 .9)" gradientUnits="userSpaceOnUse">
      <stop offset="0" stop-color="#a93723"/>
      <stop offset="1" stop-color="#e76f24"/>
    </radialGradient>
    <radialGradient id="radial-gradient1" cx="221" cy="414.67" fx="221" fy="414.67" r="18.39" xlink:href="#radial-gradient"/>
    <radialGradient id="radial-gradient2" cx="223.28" cy="404.25" fx="223.28" fy="404.25" r="2.67" xlink:href="#radial-gradient"/>
  </defs>
  <g>
    <path class="st1" d="M206.69,400.65l-2.23,3.3c-5.69-.58-10.69,1.41-11.48,6.87.59,7.96-.73,16.71,0,24.57.05.51.1,1.17.38,1.61.88,1.34,4.95,1.4,5.69-.09.69-1.37-.06-8.29.15-10.46.27-2.82,1.9-4.3,5.14-4.33,3.64-.04,5.19,1.82,5.46,4.89.18,2.06-.5,8.6.15,9.91.81,1.62,5.71,1.76,6.07-.97.54-4.04-.47-8.92.06-13.05.5-1.5,2.13-1.68,3.2-.48l.16,14.37c-.85,5.36-10.76,5.75-12.84,1.17-.1-.21-.55-1.64-.55-1.74v-10.74c-1.14-.32-2.58-.6-3.37.46-.5,3.43.5,7.78-.07,11.09-.88,5.1-11.88,5.35-12.99.8-.19-.79-.33-2.9-.39-3.84-.33-5.5-.83-20.51.47-25.26.94-3.46,5.87-8.08,9.97-8.08h7Z"/>
    <path class="st2" d="M226.06,436.98c.54-.48,2.62-.25,3.67-1.31.57-.57,1.1-2.33,1.2-3.11.65-4.98.56-16.66.05-21.74-.31-3.03-3.01-6.23-6.47-6.76-1.3-.2-12.89-.24-13.47.07-2.39,3.35,0,9.04,3.45,11.14,1.57.96,3.69.62,4.27,2.29-.39,2.25-2.93,1.48-4.6.79-6.68-2.75-10.1-12.86-4.14-17.66,4.32.14,9.07-.36,13.33-.06,6.24.44,10.87,4.93,11.36,10.46.49,5.51.46,14.85,0,20.38-.32,3.84-2.34,8.88-7.65,8.23-1.63-.2-1.86-1.98-1-2.74Z"/>
    <path class="st3" d="M221.41,412.56c-2.48-2.03,1.22-5.8,3.8-3.27,2.37,2.32-1.43,5.22-3.8,3.27Z"/>
  </g>
  <text class="st0" transform="translate(246.74 426.23) scale(.89 1)"><tspan x="0" y="0">MAHATI</tspan></text>
  <text class="st4" transform="translate(246.68 440.81) scale(1.07 1)"><tspan x="0" y="0">COMFORT MEETS CREATIVITY</tspan></text>
</svg>