<?xml version="1.0" encoding="UTF-8"?>
<svg id="Layer_1" xmlns="http://www.w3.org/2000/svg" version="1.1" viewBox="0 0 595.28 841.89">
  <!-- Generator: Adobe Illustrator 29.8.0, SVG Export Plug-In . SVG Version: 2.1.1 Build 160)  -->
  <defs>
    <style>
      .st0 {
        fill: #d96427;
        font-family: Perpetua, Perpetua;
        font-size: 7.88px;
        letter-spacing: .11em;
      }

      .st1 {
        fill: #f3733d;
      }

      .st2 {
        fill: #474647;
        font-family: PoorRichard-Regular, 'Poor Richard';
        font-size: 30.51px;
        letter-spacing: .23em;
      }
    </style>
  </defs>
  <g>
    <path class="st1" d="M229.59,422.6h2.31c.54,6.61-.65,12.56-5.09,17.51l1.99,2.03c1.54.29,5.54-7.47,6.1-9.05,6.33-18.01-8.94-37.19-26.7-27.42-11.7,6.43-11.84,28.31,2.62,29.41,13.57,1.03,15.57-20.74,1.43-20.2v-1.78c14.82-1.25,15.45,21.9,1.4,23.69-20.9,2.65-21.6-32.97,1.26-35.5,23.76-2.62,31.03,30.44,13.81,43.85l-4.9-5.03c4.82-4.17,7.58-11.08,5.77-17.51Z"/>
    <path class="st1" d="M226.76,417.79c-1.34-.87.08-3.97,1.69-3.24,2.56,1.17.35,4.55-1.69,3.24Z"/>
  </g>
  <text class="st2" transform="translate(254.78 427.08) scale(.89 1)"><tspan x="0" y="0">MAHATI</tspan></text>
  <text class="st0" transform="translate(254.84 442.34) scale(1.07 1)"><tspan x="0" y="0">COMFORT MEETS CREATIVITY</tspan></text>
</svg>