<?xml version="1.0" encoding="UTF-8"?>
<svg id="Layer_1" xmlns="http://www.w3.org/2000/svg" version="1.1" viewBox="0 0 378.83 62.58">
  <!-- Generator: Adobe Illustrator 29.8.1, SVG Export Plug-In . SVG Version: 2.1.1 Build 2)  -->
  <defs>
    <style>
      .st0 {
        fill: #d96427;
        font-family: Perpetua, Perpetua;
        font-size: 15.88px;
        letter-spacing: .21em;
      }

      .st1 {
        fill: #f3733d;
      }

      .st2 {
        fill: #474647;
        font-family: PoorRichard-Regular, 'Poor Richard';
        font-size: 30.51px;
        letter-spacing: .23em;
      }
    </style>
  </defs>
  <g>
    <path class="st1" d="M43.19,34.61h2.37c.56,6.79-.66,12.91-5.23,17.99l2.04,2.08c1.58.3,5.7-7.67,6.26-9.29,6.5-18.51-9.18-38.21-27.43-28.18-12.02,6.61-12.16,29.08,2.69,30.21,13.95,1.06,16-21.31,1.47-20.75v-1.82c15.22-1.28,15.87,22.5,1.44,24.33-21.48,2.73-22.19-33.87,1.3-36.47,24.41-2.69,31.88,31.28,14.18,45.05l-5.03-5.17c4.96-4.28,7.78-11.39,5.93-17.98Z"/>
    <path class="st1" d="M40.28,29.66c-1.38-.89.09-4.08,1.73-3.33,2.63,1.2.36,4.68-1.73,3.33Z"/>
  </g>
  <text class="st2" transform="translate(67.51 35.68) scale(.89 1)"><tspan x="0" y="0">MAHATI INTERIOR </tspan></text>
  <text class="st0" transform="translate(67.57 54.95) scale(1.07 1)"><tspan x="0" y="0">COMFORT MEETS CREATIVITY</tspan></text>
</svg>